<svg width="388" height="447" viewBox="0 0 388 447" fill="none" xmlns="http://www.w3.org/2000/svg">
<g clip-path="url(#clip0_502_1185)">
<path d="M268.814 235.03L356.641 283.167" stroke="#E8ECF1" stroke-width="3.54997" stroke-miterlimit="10"/>
<path d="M364.819 296.374C372.148 296.374 378.09 292.861 378.09 288.529C378.09 284.196 372.148 280.683 364.819 280.683C357.489 280.683 351.547 284.196 351.547 288.529C351.547 292.861 357.489 296.374 364.819 296.374Z" stroke="#E8ECF1" stroke-width="3.54997" stroke-linecap="round" stroke-linejoin="round"/>
<path d="M378.986 186.91L346.686 168.468C341.502 165.504 341.485 158.102 346.686 155.138L359.312 147.896C367.526 143.192 367.364 131.389 359.025 126.898L341.395 117.402C331.836 112.254 320.232 112.414 310.834 117.863L291.536 129.028C284.757 132.951 276.381 132.933 269.62 128.992L223.725 101.125C207.369 91.6113 187.066 91.6113 170.71 101.125" stroke="#E8ECF1" stroke-width="3.54997" stroke-linecap="round" stroke-linejoin="round"/>
<path d="M125.014 238.278L158.803 257.573L159.897 256.934C167.448 252.603 167.394 245.556 159.79 241.225L125.014 221.363C117.428 217.032 105.142 217.014 97.5919 221.363L63.0496 241.243C55.4991 245.574 55.5529 252.638 63.1393 256.969L64.1257 257.537L97.5919 238.296C105.142 233.965 117.41 233.965 125.014 238.296V238.278Z" fill="url(#paint0_linear_502_1185)" stroke="#010E3E" stroke-width="1.3313" stroke-linecap="round" stroke-linejoin="round"/>
<path d="M125.336 276.831L158.784 257.59L124.995 238.296C117.408 233.965 105.123 233.947 97.5727 238.296L64.1064 257.537L97.8955 276.831C105.482 281.162 117.785 281.162 125.336 276.831Z" fill="white" stroke="#010E3E" stroke-width="1.3313" stroke-linecap="round" stroke-linejoin="round"/>
<path d="M311.158 238.278L344.947 257.573L346.041 256.934C353.591 252.603 353.537 245.556 345.933 241.225L311.158 221.363C303.571 217.032 291.286 217.014 283.735 221.363L249.193 241.243C241.643 245.574 241.696 252.638 249.283 256.969L250.269 257.537L283.735 238.296C291.286 233.965 303.553 233.965 311.158 238.296V238.278Z" fill="url(#paint1_linear_502_1185)" stroke="#010E3E" stroke-width="1.3313" stroke-linecap="round" stroke-linejoin="round"/>
<path d="M311.499 276.831L344.947 257.59L311.158 238.296C303.572 233.965 291.286 233.948 283.736 238.296L250.27 257.537L284.059 276.831C291.645 281.162 303.948 281.162 311.499 276.831Z" fill="white" stroke="#010E3E" stroke-width="1.3313" stroke-linecap="round" stroke-linejoin="round"/>
<path d="M218.149 177.148L251.938 196.442L253.032 195.803C260.582 191.472 260.529 184.425 252.924 180.095L218.149 160.232C210.562 155.901 198.277 155.884 190.727 160.232L156.184 180.112C148.634 184.443 148.688 191.508 156.274 195.839L157.26 196.407L190.727 177.166C198.277 172.835 210.545 172.835 218.149 177.166V177.148Z" fill="url(#paint2_linear_502_1185)" stroke="#010E3E" stroke-width="1.3313" stroke-linecap="round" stroke-linejoin="round"/>
<path d="M218.47 215.683L251.919 196.442L218.13 177.148C210.543 172.817 198.258 172.799 190.707 177.148L157.241 196.389L191.03 215.683C198.617 220.014 210.92 220.014 218.47 215.683Z" fill="white" stroke="#010E3E" stroke-width="1.3313" stroke-linecap="round" stroke-linejoin="round"/>
<path d="M129.084 134.814L64.1064 170.438" stroke="#E8ECF1" stroke-width="3.54997" stroke-miterlimit="10"/>
<path d="M53.2717 181.738C60.6015 181.738 66.5434 178.226 66.5434 173.893C66.5434 169.56 60.6015 166.047 53.2717 166.047C45.9419 166.047 40 169.56 40 173.893C40 178.226 45.9419 181.738 53.2717 181.738Z" stroke="#E8ECF1" stroke-width="3.54997" stroke-linecap="round" stroke-linejoin="round"/>
<path d="M188.036 104.959C188.018 105.155 188 105.368 187.964 105.563C187.929 105.723 187.875 105.882 187.839 106.06C187.785 106.255 187.749 106.45 187.677 106.628C187.624 106.788 187.552 106.947 187.48 107.089C187.39 107.285 187.301 107.498 187.193 107.693C187.121 107.835 187.032 107.977 186.942 108.119C186.799 108.35 186.655 108.563 186.494 108.793C186.404 108.918 186.296 109.06 186.189 109.184C185.938 109.486 185.669 109.77 185.364 110.054C185.256 110.16 185.167 110.267 185.041 110.373C184.862 110.533 184.646 110.693 184.449 110.852C184.27 110.994 184.09 111.136 183.911 111.278C183.696 111.438 183.445 111.58 183.212 111.74C182.961 111.9 182.745 112.059 182.476 112.201L147.934 132.063C147.091 132.543 146.176 132.951 145.226 133.341C144.975 133.448 144.724 133.537 144.473 133.625C143.881 133.838 143.271 133.998 142.643 134.176C141.998 134.353 141.37 134.513 140.706 134.655C139.935 134.815 139.146 134.957 138.357 135.063C138.16 135.081 137.98 135.116 137.783 135.134C136.707 135.241 135.613 135.312 134.519 135.312C134.34 135.312 134.178 135.312 133.999 135.312C132.923 135.312 131.847 135.241 130.77 135.134C130.609 135.134 130.448 135.099 130.286 135.081C129.228 134.957 128.188 134.779 127.166 134.548C126.986 134.513 126.789 134.46 126.61 134.406C125.677 134.176 124.78 133.909 123.919 133.59C123.758 133.537 123.597 133.483 123.435 133.43C122.395 133.04 121.409 132.578 120.476 132.046L85.7005 112.184C83.7815 111.083 82.3646 109.823 81.3962 108.474C80.4456 107.125 79.9614 105.687 79.9793 104.267L79.8896 134.318C79.8896 137.175 81.7907 140.051 85.6108 142.234L120.386 162.096C121.265 162.593 122.198 163.037 123.184 163.427C123.238 163.445 123.292 163.463 123.346 163.481C123.507 163.534 123.668 163.587 123.83 163.64C124.386 163.836 124.96 164.049 125.534 164.208C125.856 164.297 126.179 164.368 126.502 164.439C126.681 164.492 126.861 164.528 127.058 164.581C127.219 164.617 127.381 164.67 127.56 164.705C128.188 164.83 128.834 164.954 129.479 165.043C129.712 165.078 129.946 165.096 130.179 165.114C130.34 165.131 130.501 165.149 130.663 165.167C130.896 165.185 131.129 165.22 131.362 165.238C131.99 165.291 132.636 165.327 133.281 165.344C133.479 165.344 133.676 165.344 133.891 165.344C134.07 165.344 134.232 165.344 134.411 165.344C134.698 165.344 134.985 165.344 135.272 165.344C135.99 165.327 136.707 165.273 137.424 165.202C137.514 165.202 137.586 165.185 137.657 165.167C137.855 165.149 138.034 165.114 138.231 165.096C138.787 165.025 139.343 164.972 139.899 164.865C140.132 164.83 140.366 164.741 140.599 164.688C141.262 164.546 141.908 164.386 142.536 164.208C142.876 164.12 143.235 164.066 143.576 163.96C143.845 163.871 144.096 163.765 144.365 163.658C144.616 163.569 144.867 163.481 145.118 163.374C146.069 163.001 146.984 162.593 147.826 162.096L182.369 142.216C182.369 142.216 182.53 142.128 182.602 142.074C182.781 141.968 182.943 141.844 183.104 141.737C183.337 141.595 183.57 141.435 183.786 141.276C183.983 141.134 184.162 140.992 184.342 140.85C184.539 140.69 184.754 140.53 184.933 140.37C184.969 140.335 185.023 140.299 185.059 140.264C185.131 140.193 185.184 140.122 185.256 140.051C185.561 139.767 185.83 139.483 186.081 139.181C186.135 139.11 186.207 139.057 186.261 138.986C186.314 138.915 186.35 138.862 186.386 138.791C186.548 138.578 186.709 138.347 186.834 138.116C186.888 138.027 186.978 137.939 187.032 137.832C187.068 137.779 187.068 137.743 187.104 137.69C187.211 137.495 187.301 137.3 187.39 137.087C187.444 136.962 187.516 136.856 187.552 136.732C187.552 136.696 187.57 136.643 187.588 136.607C187.659 136.412 187.695 136.235 187.749 136.039C187.785 135.915 187.839 135.773 187.857 135.649C187.857 135.613 187.857 135.578 187.857 135.542C187.893 135.347 187.911 135.134 187.929 134.939C187.929 134.815 187.964 134.673 187.982 134.548C187.982 134.495 187.982 134.442 187.982 134.389L188.072 104.338C188.072 104.533 188.036 104.711 188.018 104.906L188.036 104.959Z" fill="white" stroke="#010E3E" stroke-width="1.3313" stroke-linecap="round" stroke-linejoin="round"/>
<path d="M182.35 96.4747C189.937 100.806 190.008 107.852 182.458 112.183L147.915 132.045C140.365 136.376 128.08 136.376 120.475 132.045L85.6998 112.183C78.1134 107.852 78.0596 100.788 85.6102 96.457L120.152 76.5949C127.703 72.2639 139.97 72.2639 147.575 76.5949L182.35 96.457V96.4747Z" fill="white" stroke="#010E3E" stroke-width="1.3313" stroke-linecap="round" stroke-linejoin="round"/>
<path d="M154.193 101.054C157.368 102.865 157.386 105.811 154.229 107.622L139.809 115.911C136.653 117.721 131.524 117.721 128.367 115.911L113.858 107.622C110.683 105.811 110.666 102.865 113.822 101.054L128.242 92.7651C131.398 90.9546 136.509 90.9546 139.684 92.7651L154.193 101.054Z" fill="#E8ECF1"/>
<path d="M95.7437 129.259C97.6268 130.341 99.1513 132.95 99.1513 135.08C99.1513 137.21 97.6089 138.098 95.7258 137.015C93.8426 135.932 92.3182 133.323 92.3361 131.176C92.354 129.028 93.8785 128.176 95.7616 129.241L95.7437 129.259Z" fill="#5F38FB"/>
<path d="M104.37 134.441C106.253 135.524 107.777 138.133 107.777 140.263C107.777 142.393 106.235 143.281 104.352 142.198C102.469 141.133 100.944 138.506 100.962 136.358C100.98 134.21 102.504 133.358 104.388 134.423L104.37 134.441Z" fill="#5F38FB"/>
<path d="M112.979 139.625C114.862 140.707 116.387 143.317 116.387 145.447C116.387 147.594 114.844 148.464 112.961 147.381C111.078 146.316 109.554 143.689 109.571 141.542C109.589 139.394 111.114 138.542 112.997 139.607L112.979 139.625Z" fill="#5F38FB"/>
<path d="M162.137 135.276C160.254 136.359 158.729 138.968 158.729 141.098C158.729 143.228 160.272 144.116 162.155 143.033C164.038 141.95 165.563 139.341 165.545 137.193C165.545 135.063 164.002 134.194 162.119 135.259L162.137 135.276Z" fill="#D0D9E3"/>
<path d="M326.922 150.967C326.904 151.162 326.886 151.375 326.85 151.57C326.814 151.73 326.76 151.89 326.725 152.067C326.671 152.262 326.635 152.458 326.563 152.635C326.509 152.795 326.438 152.955 326.366 153.097C326.276 153.292 326.187 153.505 326.079 153.7C326.007 153.842 325.918 153.984 325.828 154.126C325.684 154.357 325.541 154.57 325.379 154.801C325.29 154.925 325.182 155.067 325.075 155.191C324.823 155.493 324.554 155.777 324.25 156.061C324.142 156.167 324.052 156.274 323.927 156.38C323.747 156.54 323.532 156.7 323.335 156.86C323.156 157.002 322.976 157.144 322.797 157.286C322.582 157.445 322.331 157.587 322.097 157.747C321.846 157.907 321.631 158.067 321.362 158.209L286.82 178.071C285.977 178.55 285.062 178.958 284.112 179.349C283.861 179.455 283.609 179.544 283.358 179.633C282.767 179.846 282.157 180.005 281.529 180.183C280.883 180.36 280.256 180.52 279.592 180.662C278.821 180.822 278.032 180.964 277.243 181.07C277.045 181.088 276.866 181.124 276.669 181.141C275.593 181.248 274.499 181.319 273.405 181.319C273.225 181.319 273.064 181.319 272.884 181.319C271.808 181.319 270.732 181.248 269.656 181.141C269.495 181.141 269.333 181.106 269.172 181.088C268.114 180.964 267.074 180.786 266.051 180.556C265.872 180.52 265.675 180.467 265.495 180.414C264.563 180.183 263.666 179.917 262.805 179.597C262.644 179.544 262.482 179.491 262.321 179.437C261.281 179.047 260.294 178.585 259.362 178.053L224.586 158.191C222.667 157.09 221.25 155.83 220.282 154.481C219.331 153.132 218.847 151.694 218.865 150.274L218.775 180.325C218.775 183.183 220.676 186.058 224.497 188.241L259.272 208.103C260.151 208.6 261.083 209.044 262.07 209.435C262.124 209.452 262.177 209.47 262.231 209.488C262.393 209.541 262.554 209.594 262.715 209.648C263.271 209.843 263.845 210.056 264.419 210.216C264.742 210.304 265.065 210.375 265.388 210.446C265.567 210.5 265.746 210.535 265.944 210.588C266.105 210.624 266.267 210.677 266.446 210.713C267.074 210.837 267.719 210.961 268.365 211.05C268.598 211.085 268.831 211.103 269.064 211.121C269.226 211.139 269.387 211.156 269.549 211.174C269.782 211.192 270.015 211.227 270.248 211.245C270.876 211.298 271.521 211.334 272.167 211.352C272.364 211.352 272.562 211.352 272.777 211.352C272.956 211.352 273.118 211.352 273.297 211.352C273.584 211.352 273.871 211.352 274.158 211.352C274.875 211.334 275.593 211.281 276.31 211.21C276.4 211.21 276.471 211.192 276.543 211.174C276.74 211.156 276.92 211.121 277.117 211.103C277.673 211.032 278.229 210.979 278.785 210.872C279.018 210.837 279.251 210.748 279.484 210.695C280.148 210.553 280.794 210.393 281.421 210.216C281.762 210.127 282.121 210.074 282.462 209.967C282.731 209.878 282.982 209.772 283.251 209.665C283.502 209.577 283.753 209.488 284.004 209.381C284.955 209.009 285.869 208.6 286.712 208.103L321.254 188.224C321.254 188.224 321.416 188.135 321.488 188.082C321.667 187.975 321.828 187.851 321.99 187.744C322.223 187.602 322.456 187.443 322.671 187.283C322.869 187.141 323.048 186.999 323.227 186.857C323.425 186.697 323.64 186.537 323.819 186.378C323.855 186.342 323.909 186.307 323.945 186.271C324.016 186.2 324.07 186.129 324.142 186.058C324.447 185.774 324.716 185.49 324.967 185.188C325.021 185.117 325.092 185.064 325.146 184.993C325.2 184.922 325.236 184.869 325.272 184.798C325.433 184.585 325.595 184.354 325.72 184.123C325.774 184.035 325.864 183.946 325.918 183.839C325.953 183.786 325.953 183.751 325.989 183.697C326.097 183.502 326.187 183.307 326.276 183.094C326.33 182.97 326.402 182.863 326.438 182.739C326.438 182.703 326.456 182.65 326.473 182.615C326.545 182.419 326.581 182.242 326.635 182.047C326.671 181.922 326.725 181.78 326.743 181.656C326.743 181.621 326.743 181.585 326.743 181.55C326.778 181.354 326.796 181.141 326.814 180.946C326.814 180.822 326.85 180.68 326.868 180.556C326.868 180.502 326.868 180.449 326.868 180.396L326.958 150.345C326.958 150.541 326.922 150.718 326.904 150.913L326.922 150.967Z" fill="white" stroke="#010E3E" stroke-width="1.3313" stroke-linecap="round" stroke-linejoin="round"/>
<path d="M321.237 142.483C328.823 146.814 328.895 153.86 321.344 158.191L286.802 178.053C279.252 182.384 266.966 182.384 259.362 178.053L224.587 158.191C217 153.86 216.946 146.796 224.497 142.465L259.039 122.603C266.59 118.272 278.857 118.272 286.461 122.603L321.237 142.465V142.483Z" fill="white" stroke="#010E3E" stroke-width="1.3313" stroke-linecap="round" stroke-linejoin="round"/>
<path d="M293.081 147.062C296.255 148.872 296.273 151.819 293.117 153.629L278.697 161.918C275.541 163.729 270.411 163.729 267.255 161.918L252.746 153.629C249.571 151.819 249.553 148.872 252.71 147.062L267.129 138.772C270.286 136.962 275.397 136.962 278.572 138.772L293.081 147.062Z" fill="#E8ECF1"/>
<path d="M234.629 175.266C236.513 176.349 238.037 178.958 238.037 181.088C238.037 183.218 236.495 184.105 234.612 183.023C232.728 181.958 231.204 179.331 231.222 177.183C231.24 175.035 232.764 174.183 234.647 175.248L234.629 175.266Z" fill="#5F38FB"/>
<path d="M243.239 180.448C245.122 181.531 246.646 184.14 246.646 186.27C246.646 188.4 245.104 189.288 243.221 188.205C241.338 187.122 239.813 184.513 239.831 182.365C239.849 180.218 241.374 179.366 243.257 180.431L243.239 180.448Z" fill="#5F38FB"/>
<path d="M251.865 185.632C253.748 186.714 255.272 189.324 255.272 191.454C255.272 193.601 253.73 194.471 251.847 193.388C249.964 192.306 248.439 189.696 248.457 187.549C248.475 185.401 250 184.549 251.883 185.614L251.865 185.632Z" fill="#5F38FB"/>
<path d="M301.025 181.283C299.142 182.366 297.617 184.975 297.617 187.105C297.617 189.235 299.16 190.123 301.043 189.04C302.926 187.975 304.45 185.348 304.432 183.2C304.432 181.07 302.89 180.2 301.007 181.265L301.025 181.283Z" fill="#D0D9E3"/>
<path d="M139.38 229.581L175.16 206.612" stroke="#010E3E" stroke-width="3.54997" stroke-miterlimit="10"/>
<path d="M269.747 229.581L233.967 206.613" stroke="#010E3E" stroke-width="3.54997" stroke-miterlimit="10"/>
<path d="M185.004 287.73C189.452 290.268 189.488 294.386 185.058 296.942L173.598 303.527C169.168 306.065 161.994 306.065 157.546 303.527L146.014 296.942C141.566 294.404 141.548 290.286 145.978 287.748L157.439 281.162C161.868 278.624 169.042 278.624 173.49 281.162L185.022 287.748L185.004 287.73Z" fill="#E8ECF1"/>
<path d="M177.262 289.567C179.952 291.094 179.97 293.596 177.298 295.123L170.393 299.099C167.721 300.625 163.38 300.625 160.708 299.099L153.75 295.123C151.077 293.596 151.059 291.111 153.732 289.567L160.636 285.591C163.309 284.065 167.649 284.065 170.321 285.591L177.28 289.567H177.262Z" fill="#5F38FB"/>
<path d="M409.817 187.478C414.265 190.017 414.3 194.135 409.871 196.691L398.41 203.276C393.98 205.814 386.806 205.814 382.359 203.276L370.827 196.691C366.379 194.152 366.361 190.034 370.791 187.496L382.251 180.911C386.681 178.373 393.855 178.373 398.303 180.911L409.835 187.496L409.817 187.478Z" fill="#E8ECF1"/>
<path d="M402.074 189.442C404.765 190.969 404.783 193.471 402.11 194.998L395.205 198.974C392.533 200.5 388.193 200.5 385.521 198.974L378.562 194.998C375.89 193.471 375.872 190.986 378.544 189.442L385.449 185.466C388.121 183.94 392.461 183.94 395.134 185.466L402.092 189.442H402.074Z" fill="#5F38FB"/>
<path d="M267.575 353.843C267.459 353.791 267.342 353.753 267.238 353.701C267.069 353.637 266.914 353.586 266.745 353.535C266.641 353.509 266.537 353.47 266.433 353.445C266.343 353.419 266.239 353.406 266.148 353.38C266.018 353.355 265.901 353.342 265.785 353.329C265.72 353.329 265.642 353.316 265.577 353.303C265.421 353.303 265.278 353.29 265.136 353.303C265.097 353.303 265.071 353.303 265.032 353.303C264.863 353.303 264.681 353.329 264.526 353.368C264.487 353.368 264.448 353.38 264.409 353.393C264.279 353.419 264.149 353.457 264.033 353.496C263.994 353.509 263.955 353.522 263.916 353.535C263.76 353.599 263.604 353.663 263.462 353.753L276.984 345.982C276.984 345.982 277.01 345.97 277.023 345.957C277.14 345.892 277.257 345.841 277.373 345.79C277.399 345.79 277.425 345.777 277.438 345.764C277.477 345.751 277.516 345.738 277.555 345.726C277.62 345.7 277.672 345.674 277.737 345.661C277.802 345.648 277.867 345.636 277.932 345.61C277.97 345.61 278.009 345.584 278.048 345.584C278.074 345.584 278.087 345.584 278.113 345.571C278.243 345.546 278.386 345.533 278.528 345.52C278.528 345.52 278.541 345.52 278.554 345.52C278.593 345.52 278.619 345.52 278.658 345.52C278.762 345.52 278.879 345.52 278.983 345.52C279.022 345.52 279.061 345.52 279.1 345.52C279.164 345.52 279.242 345.52 279.307 345.546C279.372 345.546 279.437 345.546 279.502 345.559C279.554 345.559 279.619 345.584 279.671 345.597C279.761 345.61 279.852 345.636 279.956 345.661C280.008 345.661 280.06 345.674 280.112 345.7C280.164 345.713 280.216 345.738 280.267 345.751C280.423 345.803 280.592 345.854 280.761 345.918C280.813 345.944 280.877 345.957 280.929 345.982C280.981 346.008 281.046 346.034 281.098 346.059C281.15 346.085 281.202 346.111 281.267 346.137C281.474 346.239 281.682 346.342 281.903 346.458L297.554 355.397C297.774 355.525 297.995 355.667 298.215 355.808C298.28 355.859 298.358 355.911 298.423 355.962C298.566 356.065 298.709 356.167 298.851 356.283C298.929 356.347 299.007 356.412 299.085 356.476C299.215 356.591 299.344 356.694 299.474 356.81C299.552 356.887 299.63 356.951 299.708 357.028C299.76 357.079 299.812 357.118 299.851 357.169C299.902 357.221 299.954 357.272 299.993 357.323C300.149 357.478 300.305 357.645 300.448 357.811C300.499 357.863 300.551 357.914 300.59 357.966C300.629 358.017 300.668 358.056 300.707 358.107C300.798 358.21 300.889 358.325 300.98 358.428C301.032 358.505 301.096 358.569 301.161 358.633C301.213 358.698 301.252 358.762 301.304 358.813C301.369 358.903 301.434 358.98 301.499 359.07C301.538 359.134 301.59 359.186 301.628 359.25C301.706 359.353 301.771 359.455 301.836 359.558C301.875 359.622 301.927 359.687 301.966 359.751C301.979 359.777 302.005 359.802 302.018 359.828C302.135 360.021 302.264 360.213 302.381 360.406C302.381 360.419 302.394 360.432 302.407 360.444C302.433 360.483 302.459 360.522 302.472 360.573C302.55 360.714 302.628 360.843 302.706 360.984C302.745 361.048 302.771 361.112 302.809 361.189C302.848 361.254 302.874 361.331 302.913 361.395C302.939 361.459 302.978 361.51 303.004 361.575C303.082 361.742 303.16 361.909 303.238 362.076C303.238 362.101 303.264 362.127 303.277 362.153C303.277 362.153 303.277 362.166 303.277 362.178C303.367 362.384 303.445 362.589 303.536 362.795C303.549 362.833 303.562 362.872 303.575 362.91C303.601 362.988 303.627 363.065 303.653 363.142C303.692 363.244 303.731 363.347 303.77 363.45C303.796 363.527 303.822 363.617 303.848 363.694C303.874 363.784 303.913 363.887 303.938 363.976C303.951 364.028 303.977 364.092 303.99 364.143C304.016 364.246 304.042 364.349 304.068 364.465C304.094 364.58 304.133 364.696 304.159 364.811C304.159 364.85 304.185 364.888 304.185 364.927C304.198 365.017 304.211 365.094 304.224 365.184C304.263 365.364 304.289 365.556 304.315 365.736C304.315 365.787 304.341 365.839 304.341 365.89C304.354 366.006 304.367 366.121 304.38 366.237C304.38 366.314 304.393 366.404 304.406 366.481C304.419 366.738 304.432 366.995 304.432 367.239L304.367 388.457C304.367 390.614 303.588 392.13 302.342 392.849L288.807 400.633C290.053 399.913 290.818 398.398 290.831 396.24L290.896 375.022C290.896 374.778 290.896 374.521 290.87 374.264C290.87 374.187 290.857 374.097 290.844 374.02C290.831 373.853 290.805 373.699 290.779 373.532C290.753 373.352 290.714 373.173 290.688 372.98C290.662 372.852 290.65 372.736 290.611 372.608C290.585 372.492 290.559 372.376 290.52 372.261C290.481 372.094 290.442 371.94 290.39 371.773C290.364 371.683 290.338 371.58 290.299 371.49C290.247 371.31 290.182 371.13 290.117 370.938C290.091 370.861 290.066 370.784 290.04 370.707C289.949 370.45 289.845 370.206 289.728 369.949C289.728 369.923 289.702 369.897 289.689 369.872C289.585 369.653 289.482 369.422 289.378 369.204C289.339 369.14 289.313 369.063 289.274 368.998C289.17 368.793 289.053 368.587 288.936 368.382C288.911 368.343 288.885 368.305 288.872 368.253C288.729 368.022 288.586 367.778 288.43 367.547C288.391 367.483 288.34 367.419 288.301 367.354C288.184 367.187 288.08 367.02 287.963 366.866C287.898 366.776 287.833 366.687 287.768 366.609C287.665 366.481 287.561 366.353 287.457 366.211C287.366 366.096 287.275 365.993 287.185 365.89C287.094 365.787 287.016 365.698 286.925 365.595C286.769 365.428 286.626 365.261 286.471 365.107C286.367 365.004 286.276 364.914 286.172 364.811C286.094 364.734 286.017 364.67 285.939 364.593C285.809 364.477 285.679 364.362 285.549 364.259C285.471 364.195 285.394 364.131 285.316 364.066C285.173 363.951 285.03 363.848 284.875 363.745C284.81 363.694 284.732 363.643 284.667 363.591C284.446 363.45 284.226 363.309 284.005 363.18L268.354 354.241C268.146 354.112 267.926 354.01 267.718 353.92C267.666 353.894 267.614 353.868 267.55 353.843H267.575Z" fill="url(#paint3_linear_502_1185)" stroke="#010E3E" stroke-width="1.3313" stroke-linecap="round" stroke-linejoin="round"/>
<path d="M268.367 354.241C264.552 352.058 261.437 353.804 261.424 358.158L261.359 379.376C261.359 383.718 264.435 389.009 268.25 391.193L283.901 400.132C287.717 402.315 290.831 400.556 290.844 396.214L290.909 374.997C290.909 370.643 287.834 365.364 284.018 363.18L268.367 354.241Z" fill="white" stroke="#010E3E" stroke-width="1.3313" stroke-miterlimit="10"/>
<path d="M53.5072 345.52L45.9205 341.166L45.8936 333.045L53.4803 337.412L53.5072 345.52Z" fill="white" stroke="#010E3E" stroke-width="1.3313" stroke-linecap="round" stroke-linejoin="round"/>
<path d="M53.4803 337.412L45.8936 333.046L53.0498 328.958L60.6231 333.325L53.4803 337.412Z" fill="white" stroke="#010E3E" stroke-width="1.3313" stroke-linecap="round" stroke-linejoin="round"/>
<path d="M60.6233 333.325L60.6502 341.446L53.5074 345.519L53.4805 337.412L60.6233 333.325Z" fill="white" stroke="#010E3E" stroke-width="1.3313" stroke-linecap="round" stroke-linejoin="round"/>
<path d="M327.193 61.4909L319.606 57.1375L319.579 49.0166L327.166 53.3833L327.193 61.4909Z" fill="white" stroke="#010E3E" stroke-width="1.3313" stroke-linecap="round" stroke-linejoin="round"/>
<path d="M327.166 53.3834L319.579 49.0168L326.735 44.9297L334.309 49.2963L327.166 53.3834Z" fill="white" stroke="#010E3E" stroke-width="1.3313" stroke-linecap="round" stroke-linejoin="round"/>
<path d="M334.309 49.2959L334.336 57.4168L327.193 61.4906L327.166 53.383L334.309 49.2959Z" fill="white" stroke="#010E3E" stroke-width="1.3313" stroke-linecap="round" stroke-linejoin="round"/>
</g>
<defs>
<linearGradient id="paint0_linear_502_1185" x1="57.4181" y1="237.852" x2="165.511" y2="237.852" gradientUnits="userSpaceOnUse">
<stop stop-color="#DCE2EA"/>
<stop offset="0.8" stop-color="#F3F5F8"/>
</linearGradient>
<linearGradient id="paint1_linear_502_1185" x1="243.562" y1="72.4592" x2="351.672" y2="72.4592" gradientUnits="userSpaceOnUse">
<stop stop-color="#DCE2EA"/>
<stop offset="0.8" stop-color="#F3F5F8"/>
</linearGradient>
<linearGradient id="paint2_linear_502_1185" x1="150.553" y1="176.704" x2="258.646" y2="176.704" gradientUnits="userSpaceOnUse">
<stop stop-color="#DCE2EA"/>
<stop offset="0.8" stop-color="#F3F5F8"/>
</linearGradient>
<linearGradient id="paint3_linear_502_1185" x1="263.449" y1="373.07" x2="304.445" y2="373.07" gradientUnits="userSpaceOnUse">
<stop stop-color="#DCE2EA"/>
<stop offset="0.8" stop-color="#F3F5F8"/>
</linearGradient>
<clipPath id="clip0_502_1185">
<rect width="388" height="447" fill="white"/>
</clipPath>
</defs>
</svg>