<svg width="388" height="447" viewBox="0 0 388 447" fill="none" xmlns="http://www.w3.org/2000/svg">
<g clip-path="url(#clip0_502_1183)">
<path d="M44.7077 244.928L2.83984 269.871" stroke="#E8ECF1" stroke-width="3.47886" stroke-miterlimit="10"/>
<path d="M-5.09214 282.812C2.01672 282.812 7.77959 279.37 7.77959 275.124C7.77959 270.878 2.01672 267.436 -5.09214 267.436C-12.201 267.436 -17.9639 270.878 -17.9639 275.124C-17.9639 279.37 -12.201 282.812 -5.09214 282.812Z" stroke="#E8ECF1" stroke-width="3.47886" stroke-linecap="round" stroke-linejoin="round"/>
<path d="M266.62 247.384L308.505 272.31" stroke="#E8ECF1" stroke-width="3.47886" stroke-miterlimit="10"/>
<path d="M188.279 171.228C190.471 172.497 190.488 174.55 188.297 175.82L182.643 179.107C180.469 180.377 176.921 180.377 174.729 179.107L169.041 175.82C166.849 174.55 166.832 172.497 169.024 171.228L174.677 167.94C176.851 166.67 180.4 166.67 182.591 167.94L188.279 171.228Z" fill="#5F38FB"/>
<path d="M236.793 144.039C236.775 144.231 236.758 144.439 236.723 144.631C236.688 144.787 236.636 144.944 236.601 145.118C236.549 145.309 236.514 145.501 236.445 145.674C236.393 145.831 236.323 145.988 236.253 146.127C236.166 146.318 236.079 146.527 235.975 146.718C235.905 146.857 235.819 146.996 235.732 147.136C235.592 147.362 235.453 147.57 235.297 147.797C235.21 147.918 235.105 148.057 235.001 148.179C234.757 148.475 234.497 148.753 234.201 149.032C234.096 149.136 234.009 149.24 233.888 149.345C233.714 149.501 233.505 149.658 233.314 149.814C233.14 149.953 232.966 150.093 232.792 150.232C232.583 150.388 232.34 150.527 232.114 150.684C231.887 150.841 231.661 150.997 231.4 151.136L197.916 170.601C197.099 171.07 196.212 171.47 195.29 171.853C195.046 171.957 194.803 172.044 194.559 172.131C193.985 172.34 193.394 172.497 192.803 172.671C192.176 172.844 191.568 173.001 190.924 173.14C190.176 173.297 189.411 173.436 188.645 173.54C188.454 173.558 188.28 173.592 188.089 173.61C187.045 173.714 185.984 173.784 184.923 173.784C184.749 173.784 184.593 173.784 184.419 173.784C183.375 173.784 182.331 173.714 181.305 173.61C181.148 173.61 180.992 173.575 180.835 173.558C179.809 173.436 178.8 173.262 177.809 173.036C177.635 173.001 177.443 172.949 177.27 172.897C176.365 172.671 175.513 172.41 174.66 172.097C174.504 172.044 174.347 171.992 174.191 171.94C173.182 171.557 172.225 171.105 171.321 170.583L137.628 151.119C135.784 150.058 134.393 148.805 133.471 147.501C132.549 146.179 132.079 144.77 132.097 143.378L132.01 172.81C132.01 175.61 133.854 178.428 137.559 180.568L171.251 200.032C172.103 200.519 173.008 200.954 173.965 201.336C174.017 201.354 174.069 201.371 174.121 201.389C174.278 201.441 174.434 201.493 174.591 201.545C175.13 201.737 175.687 201.945 176.243 202.102C176.556 202.189 176.869 202.258 177.183 202.328C177.357 202.38 177.53 202.415 177.722 202.467C177.878 202.502 178.035 202.554 178.209 202.589C178.818 202.711 179.444 202.832 180.07 202.919C180.296 202.954 180.522 202.972 180.748 202.989C180.905 203.006 181.061 203.024 181.218 203.041C181.444 203.058 181.67 203.093 181.896 203.111C182.505 203.163 183.131 203.198 183.758 203.215C183.949 203.215 184.14 203.215 184.332 203.215C184.506 203.215 184.662 203.215 184.836 203.215C185.114 203.215 185.393 203.215 185.671 203.215C186.367 203.198 187.062 203.145 187.758 203.076C187.845 203.076 187.915 203.058 187.984 203.041C188.176 203.024 188.35 202.989 188.541 202.972C189.08 202.902 189.619 202.85 190.159 202.745C190.385 202.711 190.611 202.624 190.837 202.571C191.481 202.432 192.107 202.276 192.716 202.102C193.046 202.015 193.394 201.963 193.724 201.858C193.985 201.771 194.229 201.667 194.49 201.563C194.733 201.476 194.977 201.389 195.22 201.284C196.142 200.919 197.029 200.519 197.847 200.049L231.331 180.585C231.331 180.585 231.487 180.498 231.557 180.446C231.731 180.341 231.887 180.22 232.044 180.115C232.27 179.976 232.496 179.82 232.705 179.663C232.896 179.524 233.053 179.385 233.244 179.246C233.435 179.089 233.644 178.932 233.818 178.776C233.853 178.741 233.905 178.706 233.94 178.672C234.01 178.602 234.062 178.532 234.131 178.463C234.427 178.185 234.688 177.906 234.931 177.611C234.984 177.541 235.053 177.489 235.105 177.419C235.158 177.35 235.192 177.297 235.227 177.228C235.384 177.019 235.54 176.793 235.662 176.567C235.714 176.48 235.801 176.393 235.853 176.289C235.888 176.236 235.888 176.202 235.923 176.149C236.027 175.958 236.114 175.767 236.201 175.558C236.253 175.436 236.323 175.332 236.358 175.21C236.358 175.175 236.375 175.123 236.393 175.088C236.462 174.897 236.497 174.723 236.549 174.532C236.584 174.41 236.636 174.271 236.653 174.149C236.653 174.114 236.653 174.079 236.653 174.045C236.688 173.853 236.706 173.645 236.723 173.453C236.723 173.332 236.758 173.192 236.775 173.071C236.775 173.018 236.775 172.966 236.775 172.914L236.862 143.483C236.862 143.674 236.827 143.848 236.81 144.039H236.793Z" fill="white" stroke="#010E3E" stroke-width="1.30457" stroke-linecap="round" stroke-linejoin="round"/>
<path d="M231.28 135.726C238.637 139.97 238.69 146.858 231.384 151.12L197.9 170.584C190.595 174.829 178.68 174.829 171.322 170.584L137.629 151.12C130.271 146.876 130.237 139.97 137.542 135.726L171.026 116.262C178.332 112.018 190.229 112.018 197.587 116.262L231.28 135.726Z" fill="white" stroke="#010E3E" stroke-width="1.30457" stroke-linecap="round" stroke-linejoin="round"/>
<path d="M204.003 140.213C207.082 141.988 207.099 144.858 204.038 146.632L190.07 154.755C187.027 156.529 182.052 156.529 178.973 154.755L164.901 146.632C161.822 144.858 161.805 141.97 164.866 140.196L178.834 132.073C181.878 130.299 186.853 130.299 189.931 132.073L204.003 140.196V140.213Z" fill="#E8ECF1"/>
<path d="M154.657 171.192C152.257 169.818 150.309 170.914 150.309 173.662C150.309 176.411 152.239 179.768 154.622 181.142C157.023 182.516 158.971 181.42 158.971 178.672C158.971 175.924 157.04 172.584 154.657 171.21V171.192Z" fill="#010E3E"/>
<path d="M157.161 174.585L77.6523 219.636" stroke="#010E3E" stroke-width="3.47886" stroke-miterlimit="10"/>
<path d="M122.009 204.695C121.992 204.886 121.974 205.095 121.94 205.286C121.905 205.442 121.853 205.599 121.818 205.773C121.766 205.964 121.731 206.156 121.661 206.33C121.609 206.486 121.54 206.643 121.47 206.782C121.383 206.973 121.296 207.182 121.192 207.373C121.122 207.512 121.035 207.652 120.948 207.791C120.809 208.017 120.67 208.226 120.513 208.452C120.426 208.573 120.322 208.713 120.218 208.834C119.974 209.13 119.713 209.408 119.418 209.687C119.313 209.791 119.226 209.895 119.104 210C118.93 210.156 118.722 210.313 118.53 210.469C118.356 210.609 118.183 210.748 118.009 210.887C117.8 211.043 117.556 211.183 117.33 211.339C117.087 211.496 116.878 211.652 116.617 211.791L83.1158 231.256C82.2982 231.725 81.4111 232.125 80.4892 232.508C80.2457 232.612 80.0022 232.699 79.7587 232.786C79.1847 232.995 78.5933 233.152 77.9845 233.326C77.3583 233.5 76.7495 233.656 76.1059 233.795C75.3579 233.952 74.5926 234.091 73.8272 234.195C73.6359 234.213 73.462 234.248 73.2706 234.265C72.227 234.369 71.1659 234.439 70.1049 234.439C69.9309 234.439 69.7744 234.439 69.6004 234.439C68.5568 234.439 67.5131 234.369 66.4695 234.265C66.3129 234.265 66.1564 234.23 65.9998 234.213C64.9736 234.091 63.9647 233.917 62.9732 233.691C62.7993 233.656 62.608 233.604 62.434 233.552C61.5295 233.326 60.6598 233.065 59.8249 232.752C59.6683 232.699 59.5118 232.647 59.3552 232.595C58.3464 232.212 57.3897 231.76 56.4852 231.238L22.7578 211.774C20.8966 210.696 19.5225 209.461 18.5832 208.139C17.6613 206.817 17.1916 205.408 17.209 204.016L17.1221 233.465C17.1221 236.265 18.9659 239.083 22.6708 241.223L56.3982 260.687C57.2505 261.174 58.155 261.609 59.1117 261.992C59.1639 262.009 59.2161 262.026 59.2683 262.044C59.4248 262.096 59.5814 262.148 59.7379 262.2C60.2771 262.392 60.8338 262.6 61.3904 262.757C61.7035 262.844 62.0166 262.913 62.3297 262.983C62.5036 263.035 62.6775 263.07 62.8689 263.122C63.0254 263.157 63.182 263.209 63.3559 263.244C63.9647 263.366 64.5909 263.487 65.2171 263.574C65.4432 263.609 65.6693 263.627 65.8955 263.644C66.052 263.661 66.2086 263.679 66.3651 263.696C66.5912 263.714 66.8174 263.748 67.0435 263.766C67.6523 263.818 68.2785 263.853 68.9047 263.87C69.096 263.87 69.2873 263.87 69.4961 263.87C69.67 263.87 69.8266 263.87 70.0005 263.87C70.2788 263.87 70.5571 263.87 70.8354 263.87C71.5312 263.853 72.227 263.801 72.9227 263.731C73.0097 263.731 73.0793 263.714 73.1489 263.696C73.3402 263.679 73.5141 263.644 73.7055 263.627C74.2447 263.557 74.7839 263.505 75.3231 263.4C75.5493 263.366 75.7754 263.279 76.0015 263.227C76.6451 263.087 77.2713 262.931 77.8801 262.757C78.2106 262.67 78.5585 262.618 78.889 262.513C79.1499 262.426 79.3934 262.322 79.6543 262.218C79.8978 262.131 80.1413 262.044 80.3849 261.939C81.3068 261.574 82.1939 261.174 83.0114 260.687L116.513 241.205C116.513 241.205 116.669 241.118 116.739 241.066C116.913 240.962 117.069 240.84 117.226 240.736C117.452 240.596 117.678 240.44 117.887 240.283C118.078 240.144 118.252 240.005 118.426 239.866C118.617 239.709 118.826 239.553 119 239.396C119.035 239.361 119.087 239.327 119.122 239.292C119.191 239.222 119.244 239.153 119.313 239.083C119.609 238.805 119.87 238.527 120.113 238.231C120.165 238.161 120.235 238.109 120.287 238.039C120.339 237.97 120.374 237.918 120.409 237.848C120.566 237.639 120.722 237.413 120.844 237.187C120.896 237.1 120.983 237.013 121.035 236.909C121.07 236.857 121.07 236.822 121.105 236.77C121.209 236.578 121.296 236.387 121.383 236.178C121.435 236.057 121.505 235.952 121.54 235.83C121.54 235.796 121.557 235.743 121.574 235.709C121.644 235.517 121.679 235.343 121.731 235.152C121.766 235.03 121.818 234.891 121.835 234.769C121.835 234.735 121.835 234.7 121.835 234.665C121.87 234.474 121.887 234.265 121.905 234.074C121.905 233.952 121.94 233.813 121.957 233.691C121.957 233.639 121.957 233.587 121.957 233.534L122.044 204.086C122.044 204.277 122.009 204.451 121.992 204.642L122.009 204.695Z" fill="white" stroke="#010E3E" stroke-width="1.30457" stroke-linecap="round" stroke-linejoin="round"/>
<path d="M122.009 179.838C121.992 180.029 121.974 180.238 121.94 180.429C121.905 180.586 121.853 180.742 121.818 180.916C121.766 181.107 121.731 181.299 121.661 181.473C121.609 181.629 121.54 181.786 121.47 181.925C121.383 182.116 121.296 182.325 121.192 182.516C121.122 182.655 121.035 182.795 120.948 182.934C120.809 183.16 120.67 183.369 120.513 183.595C120.426 183.716 120.322 183.856 120.218 183.977C119.974 184.273 119.713 184.551 119.418 184.83C119.313 184.934 119.226 185.038 119.104 185.143C118.93 185.299 118.722 185.456 118.53 185.612C118.356 185.752 118.183 185.891 118.009 186.03C117.8 186.186 117.556 186.326 117.33 186.482C117.087 186.639 116.878 186.795 116.617 186.934L83.1158 206.399C82.2982 206.868 81.4111 207.268 80.4892 207.651C80.2457 207.756 80.0022 207.842 79.7587 207.929C79.1847 208.138 78.5933 208.295 77.9845 208.469C77.3583 208.643 76.7495 208.799 76.1059 208.938C75.3579 209.095 74.5926 209.234 73.8272 209.338C73.6359 209.356 73.462 209.391 73.2706 209.408C72.227 209.512 71.1659 209.582 70.1049 209.582C69.9309 209.582 69.7744 209.582 69.6004 209.582C68.5568 209.582 67.5131 209.512 66.4695 209.408C66.3129 209.408 66.1564 209.373 65.9998 209.356C64.9736 209.234 63.9647 209.06 62.9732 208.834C62.7993 208.799 62.608 208.747 62.434 208.695C61.5295 208.469 60.6598 208.208 59.8249 207.895C59.6683 207.842 59.5118 207.79 59.3552 207.738C58.3464 207.355 57.3897 206.903 56.4852 206.381L22.7578 186.917C20.8966 185.839 19.5225 184.604 18.5832 183.282C17.6613 181.96 17.1916 180.551 17.209 179.159L17.1221 208.608C17.1221 211.408 18.9659 214.226 22.6708 216.366L56.3982 235.83C57.2505 236.317 58.155 236.752 59.1117 237.135C59.1639 237.152 59.2161 237.169 59.2683 237.187C59.4248 237.239 59.5814 237.291 59.7379 237.343C60.2771 237.535 60.8338 237.743 61.3904 237.9C61.7035 237.987 62.0166 238.056 62.3297 238.126C62.5036 238.178 62.6775 238.213 62.8689 238.265C63.0254 238.3 63.182 238.352 63.3559 238.387C63.9647 238.509 64.5909 238.631 65.2171 238.717C65.4432 238.752 65.6693 238.77 65.8955 238.787C66.052 238.804 66.2086 238.822 66.3651 238.839C66.5912 238.857 66.8174 238.891 67.0435 238.909C67.6523 238.961 68.2785 238.996 68.9047 239.013C69.096 239.013 69.2873 239.013 69.4961 239.013C69.67 239.013 69.8266 239.013 70.0005 239.013C70.2788 239.013 70.5571 239.013 70.8354 239.013C71.5312 238.996 72.227 238.944 72.9227 238.874C73.0097 238.874 73.0793 238.857 73.1489 238.839C73.3402 238.822 73.5141 238.787 73.7055 238.77C74.2447 238.7 74.7839 238.648 75.3231 238.544C75.5493 238.509 75.7754 238.422 76.0015 238.37C76.6451 238.23 77.2713 238.074 77.8801 237.9C78.2106 237.813 78.5585 237.761 78.889 237.656C79.1499 237.569 79.3934 237.465 79.6543 237.361C79.8978 237.274 80.1413 237.187 80.3849 237.082C81.3068 236.717 82.1939 236.317 83.0114 235.83L116.513 216.348C116.513 216.348 116.669 216.261 116.739 216.209C116.913 216.105 117.069 215.983 117.226 215.879C117.452 215.74 117.678 215.583 117.887 215.426C118.078 215.287 118.252 215.148 118.426 215.009C118.617 214.852 118.826 214.696 119 214.539C119.035 214.505 119.087 214.47 119.122 214.435C119.191 214.365 119.244 214.296 119.313 214.226C119.609 213.948 119.87 213.67 120.113 213.374C120.165 213.304 120.235 213.252 120.287 213.183C120.339 213.113 120.374 213.061 120.409 212.991C120.566 212.782 120.722 212.556 120.844 212.33C120.896 212.243 120.983 212.156 121.035 212.052C121.07 212 121.07 211.965 121.105 211.913C121.209 211.721 121.296 211.53 121.383 211.321C121.435 211.2 121.505 211.095 121.54 210.973C121.54 210.939 121.557 210.886 121.574 210.852C121.644 210.66 121.679 210.486 121.731 210.295C121.766 210.173 121.818 210.034 121.835 209.912C121.835 209.878 121.835 209.843 121.835 209.808C121.87 209.617 121.887 209.408 121.905 209.217C121.905 209.095 121.94 208.956 121.957 208.834C121.957 208.782 121.957 208.73 121.957 208.677L122.044 179.229C122.044 179.42 122.009 179.594 121.992 179.785L122.009 179.838Z" fill="white" stroke="#010E3E" stroke-width="1.30457" stroke-linecap="round" stroke-linejoin="round"/>
<path d="M116.496 171.523C123.854 175.767 123.924 182.673 116.601 186.917L83.0994 206.382C75.7764 210.626 63.8614 210.626 56.4862 206.382L22.7588 186.917C15.4011 182.673 15.3489 175.75 22.6719 171.506L56.1731 152.042C63.4961 147.797 75.3938 147.797 82.7689 152.042L116.496 171.506V171.523Z" fill="white" stroke="#010E3E" stroke-width="1.30457" stroke-linecap="round" stroke-linejoin="round"/>
<path d="M89.1857 176.011C92.2645 177.785 92.2819 180.673 89.2205 182.447L75.2355 190.57C72.1742 192.344 67.1994 192.344 64.138 190.57L50.0661 182.447C46.9873 180.673 46.9699 177.785 50.0313 176.011L64.0163 167.888C67.0776 166.114 72.035 166.114 75.1138 167.888L89.1857 176.011Z" fill="#E8ECF1"/>
<path d="M32.4965 203.65C34.3229 204.711 35.8014 207.268 35.8014 209.355C35.8014 211.443 34.3055 212.312 32.4791 211.251C30.6527 210.19 29.1742 207.633 29.1916 205.528C29.209 203.424 30.6875 202.589 32.5139 203.632L32.4965 203.65Z" fill="#5F38FB"/>
<path d="M40.8627 208.729C42.6891 209.791 44.1676 212.347 44.1676 214.435C44.1676 216.522 42.6717 217.392 40.8453 216.331C39.0189 215.287 37.5404 212.713 37.5578 210.608C37.5752 208.503 39.0537 207.668 40.8801 208.712L40.8627 208.729Z" fill="#5F38FB"/>
<path d="M49.2113 213.809C51.0377 214.87 52.5162 217.427 52.5162 219.515C52.5162 221.602 51.0203 222.472 49.1939 221.411C47.3675 220.35 45.889 217.793 45.9064 215.688C45.9064 213.601 47.4023 212.748 49.2287 213.792L49.2113 213.809Z" fill="#5F38FB"/>
<path d="M96.8918 209.548C95.0654 210.609 93.5869 213.166 93.5869 215.253C93.5869 217.34 95.0828 218.21 96.9092 217.149C98.7356 216.088 100.214 213.531 100.197 211.426C100.197 209.339 98.7008 208.487 96.8744 209.53L96.8918 209.548Z" fill="#D0D9E3"/>
<path d="M17.7437 54.0849C17.8569 54.0345 17.9702 53.9968 18.0709 53.9464C18.2345 53.8835 18.3855 53.8331 18.5491 53.7828C18.6498 53.7576 18.7505 53.7199 18.8512 53.6947C18.9393 53.6695 19.04 53.6569 19.1281 53.6318C19.2539 53.6066 19.3672 53.594 19.4805 53.5814C19.5434 53.5814 19.6189 53.5688 19.6819 53.5563C19.8329 53.5563 19.9713 53.5437 20.1098 53.5563C20.1475 53.5563 20.1727 53.5563 20.2105 53.5563C20.3741 53.5563 20.5503 53.5814 20.7013 53.6192C20.7391 53.6192 20.7768 53.6318 20.8146 53.6444C20.9404 53.6695 21.0663 53.7073 21.1796 53.745C21.2173 53.7576 21.2551 53.7702 21.2928 53.7828C21.4439 53.8457 21.5949 53.9087 21.7333 53.9968L8.61895 46.3823C8.61895 46.3823 8.59378 46.3697 8.58119 46.3571C8.46792 46.2942 8.35465 46.2438 8.24138 46.1935C8.21621 46.1935 8.19104 46.1809 8.17845 46.1683C8.14069 46.1557 8.10293 46.1432 8.06518 46.1306C8.00225 46.1054 7.9519 46.0802 7.88897 46.0676C7.82605 46.0551 7.76312 46.0425 7.70019 46.0173C7.66243 46.0173 7.62467 45.9921 7.58692 45.9921C7.56174 45.9921 7.54916 45.9921 7.52399 45.9795C7.39813 45.9544 7.25969 45.9418 7.12124 45.9292C7.12124 45.9292 7.10866 45.9292 7.09607 45.9292C7.05831 45.9292 7.03314 45.9292 6.99538 45.9292C6.8947 45.9292 6.78143 45.9292 6.68074 45.9292C6.64298 45.9292 6.60522 45.9292 6.56747 45.9292C6.50454 45.9292 6.42902 45.9292 6.3661 45.9544C6.30317 45.9544 6.24024 45.9544 6.17731 45.967C6.12697 45.967 6.06404 45.9921 6.01369 46.0047C5.92559 46.0173 5.83749 46.0425 5.73681 46.0676C5.68646 46.0676 5.63612 46.0802 5.58577 46.1054C5.53543 46.118 5.48509 46.1432 5.43475 46.1557C5.28372 46.2061 5.1201 46.2564 4.95649 46.3194C4.90614 46.3445 4.84321 46.3571 4.79287 46.3823C4.74253 46.4075 4.6796 46.4326 4.62925 46.4578C4.57891 46.483 4.52857 46.5082 4.46564 46.5333C4.26427 46.634 4.0629 46.7347 3.84894 46.848L-11.3295 55.6078C-11.5435 55.7336 -11.7574 55.8721 -11.9714 56.0105C-12.0343 56.0608 -12.1098 56.1112 -12.1728 56.1615C-12.3112 56.2622 -12.4497 56.3629 -12.5881 56.4762C-12.6636 56.5391 -12.7391 56.602 -12.8147 56.665C-12.9405 56.7782 -13.0664 56.8789 -13.1922 56.9922C-13.2677 57.0677 -13.3433 57.1306 -13.4188 57.2062C-13.4691 57.2565 -13.5195 57.2943 -13.5572 57.3446C-13.6076 57.3949 -13.6579 57.4453 -13.6957 57.4956C-13.8467 57.6467 -13.9977 57.8103 -14.1362 57.9739C-14.1865 58.0242 -14.2368 58.0746 -14.2746 58.1249C-14.3124 58.1753 -14.3501 58.213 -14.3879 58.2634C-14.476 58.3641 -14.5641 58.4773 -14.6522 58.578C-14.7025 58.6535 -14.7655 58.7165 -14.8284 58.7794C-14.8787 58.8423 -14.9165 58.9053 -14.9668 58.9556C-15.0298 59.0437 -15.0927 59.1192 -15.1556 59.2073C-15.1934 59.2702 -15.2437 59.3206 -15.2815 59.3835C-15.357 59.4842 -15.4199 59.5849 -15.4828 59.6856C-15.5206 59.7485 -15.5709 59.8114 -15.6087 59.8744C-15.6213 59.8995 -15.6465 59.9247 -15.659 59.9499C-15.7723 60.1387 -15.8982 60.3275 -16.0114 60.5163C-16.0114 60.5288 -16.024 60.5414 -16.0366 60.554C-16.0618 60.5918 -16.087 60.6295 -16.0995 60.6799C-16.1751 60.8183 -16.2506 60.9442 -16.3261 61.0826C-16.3638 61.1455 -16.389 61.2085 -16.4268 61.284C-16.4645 61.3469 -16.4897 61.4224 -16.5275 61.4854C-16.5526 61.5483 -16.5904 61.5986 -16.6156 61.6616C-16.6911 61.8252 -16.7666 61.9888 -16.8421 62.1524C-16.8421 62.1776 -16.8673 62.2028 -16.8799 62.2279C-16.8799 62.2279 -16.8799 62.2405 -16.8799 62.2531C-16.968 62.4545 -17.0435 62.6559 -17.1316 62.8572C-17.1442 62.895 -17.1568 62.9327 -17.1693 62.9705C-17.1945 63.046 -17.2197 63.1215 -17.2449 63.197C-17.2826 63.2977 -17.3204 63.3984 -17.3581 63.4991C-17.3833 63.5746 -17.4085 63.6627 -17.4336 63.7382C-17.4588 63.8263 -17.4966 63.927 -17.5217 64.0151C-17.5343 64.0655 -17.5595 64.1284 -17.5721 64.1787C-17.5973 64.2794 -17.6224 64.3801 -17.6476 64.4934C-17.6728 64.6067 -17.7105 64.7199 -17.7357 64.8332C-17.7357 64.871 -17.7609 64.9087 -17.7609 64.9465C-17.7735 65.0346 -17.786 65.1101 -17.7986 65.1982C-17.8364 65.3744 -17.8616 65.5632 -17.8867 65.7394C-17.8867 65.7897 -17.9119 65.8401 -17.9119 65.8904C-17.9245 66.0037 -17.9371 66.117 -17.9497 66.2302C-17.9497 66.3058 -17.9622 66.3939 -17.9748 66.4694C-17.9874 66.7211 -18 66.9728 -18 67.2119L-17.9371 88.0038C-17.9371 90.1183 -17.1819 91.6034 -15.9737 92.3082L-2.8467 99.9353C-4.05494 99.2305 -4.7975 97.7453 -4.81009 95.6309L-4.87302 74.839C-4.87302 74.5999 -4.87302 74.3481 -4.84785 74.0964C-4.84785 74.0209 -4.83526 73.9328 -4.82268 73.8573C-4.81009 73.6937 -4.78492 73.5426 -4.75975 73.379C-4.73457 73.2028 -4.69682 73.0266 -4.67165 72.8378C-4.64647 72.712 -4.63389 72.5987 -4.59613 72.4728C-4.57096 72.3596 -4.54579 72.2463 -4.50803 72.133C-4.47027 71.9694 -4.43252 71.8184 -4.38217 71.6548C-4.357 71.5667 -4.33183 71.466 -4.29407 71.3779C-4.24373 71.2017 -4.1808 71.0255 -4.11787 70.8367C-4.0927 70.7612 -4.06753 70.6857 -4.04236 70.6101C-3.95426 70.3584 -3.85357 70.1193 -3.7403 69.8676C-3.7403 69.8424 -3.71512 69.8172 -3.70254 69.7921C-3.60185 69.5781 -3.50117 69.3515 -3.40048 69.1376C-3.36272 69.0747 -3.33755 68.9991 -3.29979 68.9362C-3.19911 68.7348 -3.08584 68.5335 -2.97256 68.3321C-2.94739 68.2943 -2.92222 68.2566 -2.90964 68.2062C-2.77119 67.9797 -2.63275 67.7406 -2.48172 67.514C-2.44396 67.4511 -2.39362 67.3881 -2.35586 67.3252C-2.24259 67.1616 -2.1419 66.998 -2.02863 66.847C-1.9657 66.7589 -1.90277 66.6708 -1.83984 66.5952C-1.73916 66.4694 -1.63847 66.3435 -1.53778 66.2051C-1.44968 66.0918 -1.36158 65.9911 -1.27348 65.8904C-1.18538 65.7897 -1.10987 65.7016 -1.02177 65.601C-0.870737 65.4373 -0.732292 65.2737 -0.581263 65.1227C-0.480577 65.022 -0.392477 64.9339 -0.29179 64.8332C-0.216276 64.7577 -0.14076 64.6948 -0.0652456 64.6193C0.0606123 64.506 0.186469 64.3927 0.312327 64.292C0.387842 64.2291 0.463357 64.1662 0.538872 64.1032C0.677316 63.99 0.815759 63.8893 0.966789 63.7886C1.02972 63.7382 1.10523 63.6879 1.16816 63.6376C1.38212 63.4991 1.59608 63.3607 1.81004 63.2348L16.9885 54.475C17.1899 54.3492 17.4038 54.2485 17.6052 54.1604C17.6556 54.1352 17.7059 54.11 17.7688 54.0849H17.7437Z" fill="url(#paint0_linear_502_1183)" stroke="#010E3E" stroke-width="1.30457" stroke-linecap="round" stroke-linejoin="round"/>
<path d="M16.9777 54.4756C20.678 52.336 23.6985 54.0477 23.7111 58.3143L23.7741 79.1062C23.7741 83.3603 20.7912 88.5457 17.091 90.6853L1.91254 99.445C-1.78768 101.585 -4.80827 99.8604 -4.82086 95.6063L-4.88379 74.8144C-4.88379 70.5478 -1.90096 65.375 1.79927 63.2354L16.9777 54.4756Z" fill="white" stroke="#010E3E" stroke-width="1.30457" stroke-miterlimit="10"/>
<path d="M168.378 139.725C164.777 141.882 164.812 145.292 168.465 147.327L177.91 152.615C181.563 154.65 187.425 154.563 191.025 152.406L200.366 146.822C203.966 144.665 203.932 141.273 200.279 139.221L190.834 133.933C187.181 131.898 181.319 131.985 177.719 134.142L168.378 139.725Z" fill="#E8ECF1"/>
<path d="M174.727 141.134C172.553 142.439 172.57 144.492 174.779 145.727L180.485 148.927C182.694 150.162 186.225 150.11 188.399 148.805L194.035 145.431C196.209 144.126 196.192 142.074 193.983 140.839L188.277 137.638C186.068 136.403 182.537 136.455 180.363 137.76L174.727 141.134Z" fill="#5F38FB"/>
<path d="M44.0459 296.797C40.4453 298.954 40.4801 302.363 44.1328 304.398L53.5779 309.686C57.2307 311.721 63.0925 311.634 66.6931 309.478L76.0339 303.894C79.6345 301.737 79.5997 298.345 75.9469 296.293L66.5018 291.005C62.849 288.97 56.9872 289.057 53.3866 291.213L44.0459 296.797Z" fill="#E8ECF1"/>
<path d="M50.3775 298.206C48.2033 299.511 48.2206 301.563 50.4297 302.798L56.135 305.999C58.3441 307.234 61.8751 307.182 64.0494 305.877L69.6851 302.503C71.8594 301.198 71.842 299.146 69.6329 297.911L63.9276 294.71C61.7186 293.475 58.1875 293.527 56.0133 294.832L50.3775 298.206Z" fill="#5F38FB"/>
<path d="M300.886 273.129C297.285 275.286 297.32 278.695 300.973 280.73L310.418 286.018C314.071 288.053 319.932 287.966 323.533 285.809L332.874 280.226C336.474 278.069 336.44 274.677 332.787 272.624L323.342 267.336C319.689 265.301 313.827 265.388 310.226 267.545L300.886 273.129Z" fill="#E8ECF1"/>
<path d="M307.217 274.521C305.043 275.825 305.06 277.878 307.27 279.113L312.975 282.313C315.184 283.548 318.715 283.496 320.889 282.192L326.525 278.817C328.699 277.513 328.682 275.46 326.473 274.225L320.767 271.024C318.558 269.789 315.027 269.842 312.853 271.146L307.217 274.521Z" fill="#5F38FB"/>
<path d="M247.436 369.1C247.419 368.978 247.384 368.856 247.349 368.734C247.315 368.595 247.28 368.456 247.228 368.3C247.193 368.178 247.123 368.073 247.089 367.952C247.019 367.795 246.967 367.656 246.88 367.517C246.828 367.413 246.758 367.308 246.689 367.204C246.584 367.03 246.48 366.874 246.358 366.7C246.289 366.595 246.202 366.508 246.132 366.404C245.941 366.178 245.75 365.969 245.523 365.761C245.437 365.691 245.367 365.604 245.28 365.534C245.141 365.413 244.984 365.291 244.845 365.169C244.706 365.065 244.584 364.961 244.445 364.856C244.289 364.735 244.097 364.63 243.924 364.508C243.75 364.387 243.576 364.282 243.384 364.161L214.273 347.257L214.238 335.605L243.35 352.526C243.35 352.526 243.471 352.596 243.524 352.631C243.663 352.718 243.767 352.787 243.889 352.874C244.063 352.979 244.237 353.1 244.393 353.222C244.532 353.326 244.654 353.431 244.793 353.535C244.95 353.657 245.089 353.779 245.228 353.9C245.263 353.918 245.297 353.952 245.315 353.97C245.367 354.022 245.402 354.074 245.471 354.126C245.697 354.335 245.889 354.561 246.08 354.77C246.115 354.822 246.167 354.857 246.219 354.909C246.254 354.961 246.289 355.013 246.323 355.048C246.445 355.205 246.55 355.378 246.654 355.552C246.689 355.622 246.758 355.691 246.793 355.761C246.81 355.796 246.828 355.831 246.845 355.865C246.932 356.004 246.984 356.161 247.054 356.318C247.089 356.404 247.141 356.491 247.176 356.578C247.176 356.613 247.176 356.631 247.193 356.665C247.245 356.804 247.28 356.944 247.315 357.083C247.332 357.187 247.384 357.274 247.402 357.378C247.402 357.396 247.402 357.431 247.402 357.448C247.436 357.604 247.436 357.744 247.454 357.9C247.454 358.004 247.489 358.091 247.489 358.196C247.489 358.23 247.489 358.283 247.489 358.317L247.523 369.969C247.523 369.83 247.506 369.691 247.489 369.552C247.489 369.395 247.471 369.256 247.436 369.1Z" fill="url(#paint1_linear_502_1183)" stroke="#010E3E" stroke-width="1.30457" stroke-linecap="round" stroke-linejoin="round"/>
<path d="M230.012 390.42L269.418 367.673C273.905 365.082 276.131 361.69 276.131 358.299L276.166 369.951C276.166 373.342 273.94 376.733 269.453 379.324L230.046 402.071L214.03 392.75L213.995 381.098L230.012 390.402V390.42Z" fill="url(#paint2_linear_502_1183)" stroke="#010E3E" stroke-width="1.30457" stroke-linecap="round" stroke-linejoin="round"/>
<path d="M214.237 335.605L243.348 352.526C248.896 355.743 248.861 360.978 243.278 364.195L213.993 381.099L230.01 390.403L269.416 367.656C278.32 362.508 278.372 354.178 269.521 349.048L230.375 326.301L214.237 335.605Z" fill="white" stroke="#010E3E" stroke-width="1.30457" stroke-linecap="round" stroke-linejoin="round"/>
<path d="M324.264 76.9587L316.906 72.6927L316.88 64.7349L324.238 69.0139L324.264 76.9587Z" fill="white" stroke="#010E3E" stroke-width="1.30457" stroke-linecap="round" stroke-linejoin="round"/>
<path d="M324.238 69.014L316.88 64.735L323.82 60.73L331.165 65.009L324.238 69.014Z" fill="white" stroke="#010E3E" stroke-width="1.30457" stroke-linecap="round" stroke-linejoin="round"/>
<path d="M331.163 65.0088L331.189 72.9667L324.261 76.9587L324.235 69.0138L331.163 65.0088Z" fill="white" stroke="#010E3E" stroke-width="1.30457" stroke-linecap="round" stroke-linejoin="round"/>
<g clip-path="url(#clip1_502_1183)">
<path d="M238.657 254.035L238.727 276.945L251.504 284.303L251.447 261.407L238.657 254.035Z" fill="url(#paint3_linear_502_1183)" stroke="#010E3E" stroke-width="1.30457" stroke-linecap="round" stroke-linejoin="round"/>
<path d="M284.449 152.263C284.66 152.18 284.857 152.096 285.054 152.026C285.349 151.915 285.63 151.817 285.911 151.734C286.094 151.678 286.276 151.622 286.459 151.581C286.628 151.539 286.796 151.511 286.965 151.469C287.176 151.427 287.401 151.399 287.612 151.372C287.738 151.372 287.865 151.344 287.977 151.33C288.244 151.316 288.497 151.302 288.75 151.316C288.806 151.316 288.877 151.316 288.933 151.316C289.242 151.33 289.537 151.372 289.832 151.427C289.903 151.441 289.973 151.455 290.043 151.483C290.268 151.539 290.493 151.594 290.718 151.678C290.788 151.706 290.858 151.72 290.929 151.748C291.21 151.859 291.477 151.971 291.73 152.124L278.94 144.752C278.94 144.752 278.897 144.724 278.869 144.71C278.673 144.599 278.462 144.501 278.265 144.418C278.223 144.404 278.181 144.39 278.138 144.376C278.068 144.348 277.998 144.334 277.928 144.306C277.815 144.264 277.717 144.223 277.604 144.195C277.492 144.167 277.365 144.139 277.253 144.111C277.183 144.097 277.112 144.069 277.042 144.055C277 144.055 276.972 144.041 276.93 144.027C276.691 143.986 276.452 143.958 276.199 143.944C276.185 143.944 276.171 143.944 276.157 143.944C276.1 143.944 276.03 143.944 275.974 143.944C275.777 143.944 275.594 143.944 275.398 143.944C275.327 143.944 275.257 143.958 275.201 143.958C275.074 143.958 274.962 143.986 274.835 144C274.723 144 274.611 144.014 274.498 144.027C274.4 144.041 274.287 144.069 274.189 144.097C274.02 144.125 273.866 144.167 273.697 144.209C273.613 144.236 273.514 144.236 273.43 144.264C273.346 144.292 273.247 144.334 273.163 144.362C272.882 144.446 272.587 144.543 272.306 144.655C272.207 144.696 272.109 144.71 271.996 144.752C271.898 144.794 271.8 144.85 271.687 144.891C271.589 144.933 271.49 144.975 271.392 145.017C271.026 145.184 270.647 145.379 270.267 145.588L152.119 213.232C151.726 213.455 151.346 213.705 150.953 213.956C150.826 214.04 150.714 214.137 150.587 214.221C150.334 214.402 150.067 214.597 149.814 214.792C149.673 214.904 149.533 215.015 149.392 215.127C149.168 215.322 148.929 215.517 148.704 215.726C148.563 215.851 148.423 215.977 148.296 216.102C148.212 216.186 148.127 216.256 148.043 216.339C147.959 216.423 147.874 216.52 147.776 216.618C147.495 216.897 147.228 217.175 146.961 217.468C146.877 217.566 146.792 217.649 146.708 217.747C146.638 217.83 146.567 217.914 146.497 217.998C146.342 218.179 146.174 218.374 146.019 218.569C145.921 218.694 145.808 218.82 145.71 218.945C145.626 219.057 145.555 219.154 145.471 219.266C145.359 219.419 145.246 219.572 145.134 219.726C145.063 219.837 144.979 219.935 144.895 220.032C144.768 220.213 144.642 220.394 144.529 220.576C144.445 220.687 144.375 220.813 144.29 220.924C144.262 220.98 144.22 221.022 144.192 221.063C143.981 221.398 143.77 221.746 143.559 222.081C143.559 222.109 143.531 222.122 143.517 222.15C143.475 222.22 143.433 222.29 143.391 222.359C143.25 222.596 143.11 222.847 142.983 223.098C142.927 223.209 142.871 223.335 142.8 223.446C142.744 223.572 142.674 223.683 142.618 223.809C142.562 223.92 142.505 224.018 142.449 224.129C142.309 224.408 142.182 224.701 142.056 224.979C142.027 225.035 142.013 225.077 141.985 225.133C141.985 225.147 141.985 225.16 141.971 225.174C141.817 225.537 141.662 225.899 141.521 226.261C141.493 226.331 141.479 226.401 141.451 226.456C141.395 226.596 141.353 226.721 141.311 226.861C141.24 227.042 141.17 227.223 141.114 227.404C141.072 227.543 141.03 227.683 140.987 227.822C140.931 227.989 140.889 228.157 140.833 228.324C140.805 228.421 140.762 228.533 140.734 228.63C140.678 228.812 140.65 228.993 140.594 229.188C140.538 229.397 140.481 229.606 140.439 229.801C140.425 229.871 140.397 229.94 140.383 230.01C140.355 230.163 140.341 230.303 140.313 230.456C140.256 230.776 140.186 231.097 140.144 231.418C140.144 231.501 140.116 231.599 140.102 231.682C140.074 231.891 140.06 232.086 140.046 232.282C140.046 232.421 140.018 232.56 140.003 232.714C139.975 233.159 139.947 233.605 139.947 234.051L140.13 296.497C140.13 300.301 141.493 302.977 143.686 304.245L156.476 311.617C154.284 310.363 152.934 307.673 152.92 303.869L152.738 241.423C152.738 240.977 152.752 240.531 152.794 240.085C152.794 239.946 152.822 239.807 152.836 239.653C152.864 239.361 152.906 239.082 152.948 238.789C152.991 238.469 153.047 238.148 153.117 237.828C153.159 237.605 153.201 237.396 153.244 237.173C153.286 236.964 153.342 236.755 153.398 236.56C153.468 236.267 153.539 235.988 153.623 235.696C153.665 235.529 153.721 235.361 153.778 235.194C153.876 234.874 153.988 234.553 154.101 234.233C154.143 234.107 154.199 233.968 154.241 233.842C154.41 233.396 154.593 232.95 154.776 232.518C154.804 232.463 154.818 232.421 154.846 232.365C155.029 231.975 155.211 231.585 155.408 231.195C155.464 231.069 155.535 230.958 155.591 230.832C155.788 230.47 155.984 230.108 156.181 229.745C156.223 229.676 156.251 229.606 156.294 229.536C156.532 229.118 156.8 228.7 157.067 228.296C157.137 228.184 157.221 228.059 157.305 227.948C157.502 227.655 157.699 227.362 157.91 227.084C158.022 226.93 158.135 226.777 158.247 226.624C158.43 226.387 158.613 226.164 158.795 225.927C158.95 225.732 159.105 225.537 159.273 225.356C159.428 225.174 159.582 225.007 159.737 224.84C160.004 224.547 160.271 224.255 160.552 223.976C160.721 223.809 160.89 223.628 161.072 223.46C161.213 223.335 161.339 223.209 161.48 223.084C161.705 222.875 161.944 222.68 162.169 222.485C162.309 222.373 162.45 222.262 162.576 222.15C162.829 221.955 163.082 221.76 163.349 221.579C163.476 221.495 163.588 221.398 163.715 221.314C164.094 221.049 164.488 220.813 164.881 220.576L283.044 152.974C283.423 152.765 283.789 152.57 284.168 152.403C284.267 152.361 284.365 152.319 284.463 152.277L284.449 152.263Z" fill="url(#paint4_linear_502_1183)" stroke="#010E3E" stroke-width="1.30457" stroke-linecap="round" stroke-linejoin="round"/>
<path d="M283.045 152.975C289.778 149.114 295.245 152.208 295.273 159.873L295.456 222.318C295.484 229.983 290.045 239.306 283.312 243.166L272.166 249.548L251.505 284.317L251.435 261.421L165.15 310.809C158.431 314.655 152.95 311.576 152.936 303.911L152.753 241.466C152.725 233.801 158.164 224.478 164.897 220.618L283.045 152.975Z" fill="#DCE2EA" stroke="#010E3E" stroke-width="1.30457" stroke-linecap="round" stroke-linejoin="round"/>
<path d="M231.098 229.992L231.098 229.991C231.914 229.523 232.504 229.558 232.848 229.753C233.19 229.946 233.516 230.427 233.523 231.352C233.523 231.352 233.523 231.352 233.523 231.353L233.551 239.794C233.551 239.794 233.551 239.794 233.551 239.795C233.551 240.718 233.22 241.786 232.654 242.762C232.087 243.737 231.318 244.559 230.505 245.025L174.369 277.16L174.368 277.161C173.552 277.629 172.963 277.594 172.618 277.399C172.276 277.205 171.95 276.725 171.944 275.8C171.944 275.8 171.944 275.799 171.944 275.799L171.916 267.358C171.916 267.358 171.916 267.357 171.916 267.357C171.916 266.433 172.247 265.361 172.813 264.385C173.381 263.408 174.149 262.587 174.958 262.128L174.961 262.127L231.098 229.992Z" fill="#5F38FB" stroke="#010E3E" stroke-width="1.30457"/>
<path d="M273.399 179.341C275.831 177.948 277.812 179.077 277.827 181.836V187.954C277.855 190.727 275.887 194.113 273.455 195.507L175.631 251.5C173.199 252.893 171.217 251.765 171.203 248.991V242.874C171.175 240.101 173.143 236.714 175.575 235.335L273.399 179.341Z" fill="white" stroke="#010E3E" stroke-width="1.30457" stroke-miterlimit="10"/>
</g>
</g>
<defs>
<linearGradient id="paint0_linear_502_1183" x1="21.7459" y1="72.9259" x2="-18.0126" y2="72.9259" gradientUnits="userSpaceOnUse">
<stop stop-color="#DCE2EA"/>
<stop offset="0.8" stop-color="#F3F5F8"/>
</linearGradient>
<linearGradient id="paint1_linear_502_1183" x1="247.523" y1="352.787" x2="214.238" y2="352.787" gradientUnits="userSpaceOnUse">
<stop stop-color="#DCE2EA"/>
<stop offset="0.8" stop-color="#F3F5F8"/>
</linearGradient>
<linearGradient id="paint2_linear_502_1183" x1="276.148" y1="380.177" x2="213.978" y2="380.177" gradientUnits="userSpaceOnUse">
<stop stop-color="#DCE2EA"/>
<stop offset="0.8" stop-color="#F3F5F8"/>
</linearGradient>
<linearGradient id="paint3_linear_502_1183" x1="238.657" y1="269.169" x2="251.504" y2="269.169" gradientUnits="userSpaceOnUse">
<stop stop-color="#DCE2EA"/>
<stop offset="0.8" stop-color="#F3F5F8"/>
</linearGradient>
<linearGradient id="paint4_linear_502_1183" x1="139.989" y1="227.794" x2="291.716" y2="227.794" gradientUnits="userSpaceOnUse">
<stop stop-color="#DCE2EA"/>
<stop offset="0.8" stop-color="#F3F5F8"/>
</linearGradient>
<clipPath id="clip0_502_1183">
<rect width="388" height="447" fill="white"/>
</clipPath>
<clipPath id="clip1_502_1183">
<rect width="156.547" height="169.594" fill="white" transform="translate(139.453 143.422)"/>
</clipPath>
</defs>
</svg>